<?xml version="1.0" encoding="UTF-8"?><svg id="Capa_2" xmlns="http://www.w3.org/2000/svg" viewBox="0 0 532 532"><defs><style>.cls-1{fill:#5e4595;}.cls-1,.cls-2,.cls-3{stroke-width:0px;}.cls-2{fill:none;}.cls-3{fill:#f09dc8;}</style></defs><g id="Capa_1-2"><path class="cls-2" d="M266,532c146.91,0,266-119.09,266-266S412.91,0,266,0C119.09,0,0,119.09,0,266s119.09,266,266,266Z"/><path class="cls-1" d="M251.89,114.53h39.3c53.42,0,96.73,43.31,96.73,96.73v116.88c0,53.42-43.31,96.73-96.73,96.73h-39.3c-53.42,0-96.73-43.31-96.73-96.73v-116.88c0-53.42,43.31-96.73,96.73-96.73Z"/><path class="cls-3" d="M336.86,316.43l-64.18-50.43,64.18-50.43c1-.78,1.83-1.76,2.46-2.87.62-1.11,1.02-2.33,1.17-3.59.15-1.26.05-2.54-.29-3.76-.34-1.22-.92-2.37-1.71-3.37-1.75-2.23-77.46-49.08-79.86-50.59-1.46-.92-3.15-1.42-4.87-1.47s-3.43.37-4.94,1.21c-1.51.84-2.77,2.06-3.64,3.55-.88,1.49-1.34,3.18-1.34,4.91v83.74l-42.39-33.3c-2.02-1.58-4.58-2.3-7.13-2-2.55.31-4.87,1.61-6.45,3.63-1.58,2.02-2.3,4.58-2,7.13.31,2.55,1.61,4.87,3.63,6.45l51.87,40.75-51.87,40.76c-1,.78-1.83,1.76-2.46,2.87-.62,1.11-1.02,2.33-1.17,3.59-.15,1.26-.05,2.54.29,3.76.34,1.22.92,2.37,1.71,3.37.78,1,1.76,1.83,2.87,2.46s2.33,1.02,3.59,1.17c1.26.15,2.54.05,3.76-.29,1.22-.34,2.37-.92,3.37-1.71l42.39-33.31v83.74c0,1.73.46,3.42,1.33,4.91.87,1.49,2.13,2.72,3.64,3.56,1.51.84,3.22,1.25,4.95,1.21,1.73-.05,3.41-.56,4.87-1.48,2.4-1.5,78.11-48.36,79.86-50.59.79-1,1.37-2.14,1.71-3.37.34-1.22.44-2.5.29-3.76-.15-1.26-.55-2.48-1.17-3.59s-1.46-2.08-2.46-2.87ZM316.9,208.87l-50.91,40v-71.81l50.91,31.82ZM266,283.13l50.91,40-50.91,31.82v-71.82Z"/></g></svg>