<?xml version="1.0" encoding="UTF-8"?><svg id="Capa_2" xmlns="http://www.w3.org/2000/svg" viewBox="0 0 532 532"><defs><style>.cls-1{fill:#e367a7;}.cls-1,.cls-2,.cls-3{stroke-width:0px;}.cls-2{fill:none;}.cls-3{fill:#fff;}</style></defs><g id="Capa_1-2"><path class="cls-2" d="M266,532c146.91,0,266-119.09,266-266S412.91,0,266,0,0,119.09,0,266s119.09,266,266,266Z"/><path class="cls-3" d="M323.5,420.76h-116.07c-16.03,0-29.02-12.99-29.02-29.02v-251.49c0-16.03,12.99-29.02,29.02-29.02h116.07c16.03,0,29.02,12.99,29.02,29.02v251.49c0,16.03-12.99,29.02-29.02,29.02Z"/><path class="cls-1" d="M342.84,169.27h-154.76v193.45h154.76v-193.45Z"/><path class="cls-1" d="M232.15,149.93c2.67,0,4.84-2.17,4.84-4.84s-2.17-4.84-4.84-4.84-4.84,2.17-4.84,4.84,2.17,4.84,4.84,4.84Z"/><path class="cls-1" d="M304.69,145.09c0,2.67-2.17,4.84-4.84,4.84h-48.36c-2.67,0-4.84-2.17-4.84-4.84s2.17-4.84,4.84-4.84h48.36c2.67,0,4.84,2.17,4.84,4.84Z"/><path class="cls-1" d="M266,411.09c10.68,0,19.35-8.66,19.35-19.35s-8.66-19.35-19.35-19.35-19.35,8.66-19.35,19.35,8.66,19.35,19.35,19.35Z"/></g></svg>