<?xml version="1.0" encoding="UTF-8"?><svg id="Capa_2" xmlns="http://www.w3.org/2000/svg" viewBox="0 0 532 532"><defs><style>.cls-1{fill:#e367a7;}.cls-1,.cls-2,.cls-3{stroke-width:0px;}.cls-2{fill:none;}.cls-3{fill:#fff;}</style></defs><g id="Capa_1-2"><path class="cls-2" d="M266,532c146.91,0,266-119.09,266-266S412.91,0,266,0,0,119.09,0,266s119.09,266,266,266Z"/><path class="cls-3" d="M309.82,386.13c67.8,0,122.76-54.96,122.76-122.76s-54.96-122.76-122.76-122.76-122.76,54.96-122.76,122.76,54.96,122.76,122.76,122.76Z"/><path class="cls-1" d="M309.82,358.23c52.39,0,94.86-42.47,94.86-94.86s-42.47-94.86-94.86-94.86-94.86,42.47-94.86,94.86,42.47,94.86,94.86,94.86Z"/><path class="cls-3" d="M259.6,263.38c0,3.08-2.5,5.58-5.58,5.58h-11.16c-3.08,0-5.58-2.5-5.58-5.58s2.5-5.58,5.58-5.58h11.16c3.08,0,5.58,2.5,5.58,5.58Z"/><path class="cls-3" d="M360.04,263.38c0,3.08,2.5,5.58,5.58,5.58h11.16c3.08,0,5.58-2.5,5.58-5.58s-2.5-5.58-5.58-5.58h-11.16c-3.08,0-5.58,2.5-5.58,5.58Z"/><path class="cls-3" d="M274.31,227.86c-2.18,2.18-5.71,2.18-7.89,0l-7.89-7.89c-2.18-2.18-2.18-5.71,0-7.89,2.18-2.18,5.71-2.18,7.89,0l7.89,7.89c2.18,2.18,2.18,5.71,0,7.89Z"/><path class="cls-3" d="M345.33,227.86c-2.18-2.18-2.18-5.71,0-7.89l7.89-7.89c2.18-2.18,5.71-2.18,7.89,0,2.18,2.18,2.18,5.71,0,7.89l-7.89,7.89c-2.18,2.18-5.71,2.18-7.89,0Z"/><path class="cls-3" d="M345.33,298.89c2.18-2.18,5.71-2.18,7.89,0l7.89,7.89c2.18,2.18,2.18,5.71,0,7.89-2.18,2.18-5.71,2.18-7.89,0l-7.89-7.89c-2.18-2.18-2.18-5.71,0-7.89Z"/><path class="cls-3" d="M274.31,298.89c-2.18-2.18-5.71-2.18-7.89,0l-7.89,7.89c-2.18,2.18-2.18,5.71,0,7.89,2.18,2.18,5.71,2.18,7.89,0l7.89-7.89c2.18-2.18,2.18-5.71,0-7.89Z"/><path class="cls-3" d="M312.3,313.59c3.08,0,5.58,2.5,5.58,5.58v11.16c0,3.08-2.5,5.58-5.58,5.58s-5.58-2.5-5.58-5.58v-11.16c0-3.08,2.5-5.58,5.58-5.58Z"/><path class="cls-3" d="M338.8,293.64c-1.94,1.94-5.01,2.15-7.2.51l-25.65-21.76c-1.92-1.44-3.12-3.64-3.29-6.04-.17-2.39.71-4.74,2.4-6.44,1.7-1.7,4.05-2.57,6.45-2.4,2.39.17,4.6,1.37,6.04,3.29l21.76,25.65c1.65,2.19,1.43,5.26-.51,7.19Z"/><path class="cls-3" d="M319.66,263.39c.24,2.86-.73,5.69-2.68,7.81-1.94,2.11-4.69,3.31-7.56,3.31s-5.61-1.2-7.56-3.31c-1.94-2.11-2.91-4.94-2.68-7.81l4.19-61.42c.26-3.14,2.89-5.56,6.05-5.56s5.78,2.42,6.04,5.56l4.18,61.41Z"/><path class="cls-1" d="M165.22,190.19c2.86-.24,5.69.73,7.81,2.68,2.11,1.94,3.31,4.69,3.31,7.56s-1.2,5.61-3.31,7.56c-2.11,1.94-4.94,2.91-7.81,2.68l-61.42-4.19c-3.14-.26-5.56-2.89-5.56-6.05s2.42-5.78,5.56-6.04l61.41-4.18Z"/><path class="cls-1" d="M142.58,253.73c2.86-.24,5.69.73,7.81,2.68,2.11,1.94,3.31,4.69,3.31,7.56s-1.2,5.61-3.31,7.56c-2.11,1.94-4.94,2.91-7.81,2.68l-61.42-4.19c-3.14-.26-5.56-2.89-5.56-6.05s2.42-5.78,5.56-6.04l61.41-4.18Z"/><path class="cls-1" d="M154.27,310.7c2.86-.24,5.69.73,7.81,2.68,2.11,1.94,3.31,4.69,3.31,7.56s-1.2,5.61-3.31,7.56c-2.11,1.94-4.94,2.91-7.81,2.68l-61.42-4.19c-3.14-.26-5.56-2.89-5.56-6.05s2.42-5.78,5.56-6.04l61.41-4.18Z"/></g></svg>