<?xml version="1.0" encoding="UTF-8"?><svg id="Capa_2" xmlns="http://www.w3.org/2000/svg" viewBox="0 0 532 532"><defs><style>.cls-1{fill:#e367a7;}.cls-1,.cls-2,.cls-3{stroke-width:0px;}.cls-2{fill:none;}.cls-3{fill:#fff;}</style></defs><g id="Capa_1-2"><path class="cls-2" d="M266,532c146.91,0,266-119.09,266-266S412.91,0,266,0,0,119.09,0,266s119.09,266,266,266Z"/><path class="cls-3" d="M155.74,321.69l-13.68,13.68c-15.11,15.11-15.11,39.6,0,54.72,15.11,15.11,39.6,15.11,54.72,0l13.68-13.68,116.81-8.87c1.85-.2,3.41-1.45,4.03-3.21s.17-3.7-1.15-5.02l-157.31-157.31c-1.32-1.32-3.26-1.76-5.02-1.15-1.76.61-3,2.18-3.21,4.03,0,0-8.87,116.81-8.87,116.81Z"/><path class="cls-1" d="M363.06,168.94c31.57,31.57,46.61,73.29,45.24,114.6-.14,5.19-4.41,9.33-9.61,9.33h-.2c-5.4,0-9.75-4.48-9.54-9.95,1.23-36.18-11.97-72.71-39.57-100.3-27.6-27.6-64.15-40.79-100.32-39.55-5.43.19-9.93-4.12-9.93-9.55v-.19c0-5.22,4.17-9.46,9.39-9.63,41.29-1.36,83.01,13.72,114.55,45.25Z"/><path class="cls-1" d="M335.7,196.29c24.03,24.03,35.32,56.02,33.83,87.48-.24,5.09-4.45,9.1-9.54,9.1h-.2c-5.53,0-9.78-4.66-9.54-10.19,1.16-26.19-8.21-52.71-28.21-72.71-20-20-46.55-29.41-72.73-28.22-5.51.25-10.17-3.99-10.17-9.51v-.19c0-5.11,4.03-9.34,9.14-9.58,31.44-1.48,63.4,9.79,87.43,33.83Z"/><path class="cls-1" d="M308.34,223.65c16.59,16.59,24.08,38.85,22.47,60.57-.34,4.92-4.62,8.65-9.54,8.65h-.2c-5.54,0-9.95-4.69-9.58-10.26,1.2-16.25-4.41-32.87-16.83-45.28-12.4-12.4-29.05-18.02-45.28-16.85-5.55.4-10.26-3.98-10.26-9.54v-.2c0-4.97,3.8-9.21,8.76-9.58,21.67-1.6,43.89,5.92,60.46,22.49Z"/></g></svg>