<?xml version="1.0" encoding="UTF-8"?><svg id="Capa_2" xmlns="http://www.w3.org/2000/svg" viewBox="0 0 532 532"><defs><style>.cls-1{fill:#e367a7;}.cls-1,.cls-2,.cls-3{stroke-width:0px;}.cls-2{fill:none;}.cls-3{fill:#fff;}</style></defs><g id="Capa_1-2"><path class="cls-2" d="M266,532c146.91,0,266-119.09,266-266S412.91,0,266,0,0,119.09,0,266s119.09,266,266,266Z"/><path class="cls-3" d="M324.04,246.65c0,32.05-25.99,58.04-58.04,58.04s-58.04-25.99-58.04-58.04,58.04-135.42,58.04-135.42c0,0,58.04,103.37,58.04,135.42Z"/><path class="cls-1" d="M266,396.58c-82.78,0-150.38-29.45-154.56-66.49-.08,1.2-.2,2.4-.2,3.62,0,48.08,69.29,87.05,154.76,87.05s154.76-38.98,154.76-87.05c0-1.21-.12-2.41-.2-3.62-4.18,37.04-71.78,66.49-154.56,66.49Z"/><path class="cls-1" d="M266,338.55c-49.26,0-91.6-15.32-110.45-37.3-.08.86-.17,1.71-.17,2.58,0,29.85,49.52,54.06,110.62,54.06s110.62-24.21,110.62-54.06c0-.87-.09-1.72-.17-2.58-18.84,21.98-61.19,37.3-110.45,37.3Z"/></g></svg>