<?xml version="1.0" encoding="UTF-8"?><svg id="Capa_2" xmlns="http://www.w3.org/2000/svg" viewBox="0 0 532 532"><defs><style>.cls-1{fill:#e367a7;}.cls-1,.cls-2,.cls-3{stroke-width:0px;}.cls-2{fill:none;}.cls-3{fill:#fff;}</style></defs><g id="Capa_1-2"><path class="cls-2" d="M266,532c146.91,0,266-119.09,266-266S412.91,0,266,0,0,119.09,0,266s119.09,266,266,266Z"/><path class="cls-3" d="M284.81,207.43l-116.07,43.53v113.18c-7.86-2.5-17.29-2.67-26.81.1-20.51,5.98-33.51,23.31-29.02,38.69,4.49,15.38,24.76,23.01,45.27,17.02,18.26-5.32,30.53-19.64,29.84-33.57h.06v-96.73l77.38-29.02v79.33c-7.86-2.5-17.29-2.67-26.81.1-20.51,5.98-33.51,23.31-29.02,38.69,4.49,15.38,24.76,23.01,45.27,17.02,18.26-5.32,30.53-19.64,29.84-33.57h.06v-154.76h0Z"/><path class="cls-1" d="M209.12,96.85v67.64c-12.41,0-22.22,11.14-19.97,23.97,1.43,8.16,8.13,14.86,16.29,16.29,12.83,2.25,23.97-7.56,23.97-19.97v-71.5l47.35-13.53v37.68c-12.41,0-22.22,11.14-19.97,23.97,1.43,8.16,8.13,14.86,16.29,16.29,12.83,2.25,23.97-7.56,23.97-19.97v-84.33l-87.94,23.45Z"/><path class="cls-1" d="M324.41,228.08v55.56c-10.19,0-18.25,9.15-16.4,19.69,1.18,6.7,6.68,12.21,13.38,13.38,10.54,1.85,19.69-6.21,19.69-16.4v-58.73l38.89-11.11v30.95c-10.19,0-18.25,9.15-16.4,19.69,1.18,6.7,6.68,12.21,13.38,13.38,10.54,1.85,19.69-6.21,19.69-16.4v-69.26l-72.22,19.26Z"/><path class="cls-1" d="M338.05,127.08v37.15c-6.82,0-12.2,6.12-10.97,13.16.79,4.48,4.46,8.16,8.95,8.95,7.05,1.24,13.16-4.15,13.16-10.97v-39.27l26-7.43v20.69c-6.82,0-12.2,6.12-10.97,13.16.79,4.48,4.46,8.16,8.95,8.95,7.05,1.24,13.16-4.15,13.16-10.97v-46.31l-48.29,12.88Z"/></g></svg>