<?xml version="1.0" encoding="UTF-8"?><svg id="Capa_2" xmlns="http://www.w3.org/2000/svg" viewBox="0 0 532 532"><defs><style>.cls-1{fill:#e367a7;}.cls-1,.cls-2,.cls-3{stroke-width:0px;}.cls-2{fill:none;}.cls-3{fill:#fff;}</style></defs><g id="Capa_1-2"><path class="cls-2" d="M266,532c146.91,0,266-119.09,266-266S412.91,0,266,0,0,119.09,0,266s119.09,266,266,266Z"/><path class="cls-3" d="M324.59,421.3h48.36c-33.85-53.19-73.28-128.28-101.77-209.77-.66-1.88-2.55-3.04-4.54-3.02-1.99.02-3.81,1.24-4.47,3.12-27.44,79.09-68.16,156.48-102.02,209.67h48.36c5.19-9.28,10.01-19.02,14.65-29.02h86.76c4.64,10,9.47,19.74,14.65,29.02ZM266.56,266.82c4.78,18.11,9.92,35.76,15.43,52.92h-30.86c5.51-17.16,10.64-34.81,15.43-52.92ZM231.67,372.94c4.55-10.95,8.82-22.26,12.88-33.85h44.01c4.06,11.6,8.34,22.9,12.88,33.85h-69.78Z"/><path class="cls-1" d="M307.5,164.21c0,2.26.95,4.51,2.79,6.1,5.33,4.6,8.39,11.27,8.39,18.31s-2.98,13.54-8.18,18.13c-3.34,2.95-3.65,8.04-.71,11.38,2.95,3.34,8.04,3.65,11.38.71,8.66-7.65,13.63-18.66,13.63-30.21s-5.09-22.85-13.97-30.51c-3.37-2.91-8.46-2.53-11.37.84-1.31,1.52-1.95,3.4-1.95,5.26Z"/><path class="cls-1" d="M345.28,231.57c0,2.22.91,4.42,2.69,6.01,3.32,2.96,8.42,2.68,11.38-.64,11.89-13.3,18.44-30.46,18.44-48.32s-6.42-34.67-18.07-47.91c-2.94-3.34-8.03-3.67-11.38-.73-3.34,2.94-3.67,8.03-.73,11.38,9.06,10.29,14.05,23.52,14.05,37.26s-5.09,27.23-14.33,37.57c-1.37,1.54-2.05,3.45-2.05,5.37Z"/><path class="cls-1" d="M375.97,123.92c0,2.2.89,4.39,2.65,5.98,16.54,14.98,26.02,36.36,26.02,58.67s-9.45,43.6-25.93,58.58c-3.29,2.99-3.54,8.09-.55,11.38s8.09,3.54,11.38.55c19.84-18.03,31.21-43.73,31.21-70.51s-11.42-52.58-31.33-70.61c-3.3-2.99-8.4-2.74-11.38.57-1.4,1.54-2.08,3.47-2.08,5.4Z"/><path class="cls-1" d="M224.5,164.21c0,2.26-.95,4.51-2.79,6.1-5.33,4.6-8.39,11.27-8.39,18.31s2.98,13.54,8.18,18.13c3.34,2.95,3.65,8.04.71,11.38-2.95,3.34-8.04,3.65-11.38.71-8.66-7.65-13.63-18.66-13.63-30.21s5.09-22.85,13.97-30.51c3.37-2.91,8.46-2.53,11.37.84,1.31,1.52,1.95,3.4,1.95,5.26Z"/><path class="cls-1" d="M186.72,231.57c0,2.22-.91,4.42-2.69,6.01-3.32,2.96-8.42,2.68-11.38-.64-11.89-13.3-18.44-30.46-18.44-48.32s6.42-34.67,18.07-47.91c2.94-3.34,8.03-3.67,11.38-.73,3.34,2.94,3.67,8.03.73,11.38-9.06,10.29-14.05,23.52-14.05,37.26s5.09,27.23,14.33,37.57c1.37,1.54,2.05,3.45,2.05,5.37Z"/><path class="cls-1" d="M156.03,123.92c0,2.2-.89,4.39-2.65,5.98-16.54,14.98-26.02,36.36-26.02,58.67s9.45,43.6,25.93,58.58c3.29,2.99,3.54,8.09.55,11.38-2.99,3.29-8.09,3.54-11.38.55-19.84-18.03-31.21-43.73-31.21-70.51s11.42-52.58,31.33-70.61c3.3-2.99,8.4-2.74,11.38.57,1.4,1.54,2.08,3.47,2.08,5.4Z"/></g></svg>