<?xml version="1.0" encoding="UTF-8"?><svg id="Capa_2" xmlns="http://www.w3.org/2000/svg" viewBox="0 0 532 532"><defs><style>.cls-1{fill:#5e4595;}.cls-1,.cls-2{stroke-width:0px;}.cls-2{fill:none;}</style></defs><g id="Capa_1-2"><path class="cls-2" d="M266,532c146.91,0,266-119.09,266-266S412.91,0,266,0,0,119.09,0,266s119.09,266,266,266Z"/><path class="cls-1" d="M371.68,267.3c2.07-1.3,2.63-3.93,1.24-5.87-.84-1.17-2.24-1.87-3.74-1.88h-105.93l129.22-122.62c1.82-1.81,1.83-4.76.02-6.59-.88-.88-2.07-1.38-3.32-1.37h-120.84c-1.41,0-2.74.65-3.61,1.76l-125.56,155.3c-1.55,2-1.18,4.87.81,6.41.8.62,1.78.95,2.79.96h86.48l-107.22,111.47c-1.64,1.76-1.46,4.43.41,5.97,1.54,1.26,3.79,1.4,5.49.34,0,0,243.75-143.87,243.75-143.87Z"/></g></svg>